{
    "asset" : {
        "generator" : "Khronos glTF Blender I/O v1.3.48",
        "version" : "2.0"
    },
    "scene" : 0,
    "scenes" : [
        {
            "name" : "Scene",
            "nodes" : [
                0,
                1,
                2,
                3,
                4,
                5,
                6
            ]
        }
    ],
    "nodes" : [
        {
            "name" : "Light",
            "rotation" : [
                0.16907575726509094,
                0.7558803558349609,
                -0.27217137813568115,
                0.570947527885437
            ],
            "scale" : [
                0.7633692622184753,
                0.7633691430091858,
                0.7633693218231201
            ],
            "translation" : [
                8.610879898071289,
                5.509689807891846,
                -0.8071861267089844
            ]
        },
        {
            "name" : "Camera",
            "rotation" : [
                0.483536034822464,
                0.33687159419059753,
                -0.20870360732078552,
                0.7804827094078064
            ],
            "translation" : [
                2.8894286155700684,
                6.255343914031982,
                6.925790786743164
            ]
        },
        {
            "mesh" : 0,
            "name" : "\u5186\u67f1",
            "scale" : [
                0.974220335483551,
                0.7297258973121643,
                0.974220335483551
            ],
            "translation" : [
                0.24585485458374023,
                2.288886785507202,
                0
            ]
        },
        {
            "mesh" : 1,
            "name" : "\u5186\u67f1.001",
            "scale" : [
                1.2109603881835938,
                0.9356777667999268,
                1.2109603881835938
            ],
            "translation" : [
                0.24585485458374023,
                1.6839122772216797,
                0
            ]
        },
        {
            "mesh" : 2,
            "name" : "\u5186\u67f1.002",
            "scale" : [
                1.4315968751907349,
                1.2545331716537476,
                1.4315968751907349
            ],
            "translation" : [
                0.24585485458374023,
                1.0076066255569458,
                0
            ]
        },
        {
            "mesh" : 3,
            "name" : "\u5186\u67f1.003",
            "scale" : [
                0.252540647983551,
                0.8289713263511658,
                0.252540647983551
            ],
            "translation" : [
                0.24585485458374023,
                0.9228372573852539,
                0
            ]
        },
        {
            "mesh" : 4,
            "name" : "\u5186",
            "rotation" : [
                0.7071068286895752,
                0,
                0,
                0.7071068286895752
            ],
            "scale" : [
                -0.3152521848678589,
                -0.3152521848678589,
                -0.3152521848678589
            ],
            "translation" : [
                0.24585485458374023,
                3.376018524169922,
                0
            ]
        }
    ],
    "materials" : [
        {
            "doubleSided" : true,
            "emissiveFactor" : [
                0,
                0,
                0
            ],
            "name" : "\u30de\u30c6\u30ea\u30a2\u30eb.002",
            "pbrMetallicRoughness" : {
                "baseColorFactor" : [
                    0.00048483535647392273,
                    0.216098353266716,
                    0.012014966458082199,
                    1
                ],
                "metallicFactor" : 0,
                "roughnessFactor" : 0.5
            }
        },
        {
            "doubleSided" : true,
            "emissiveFactor" : [
                0,
                0,
                0
            ],
            "name" : "\u30de\u30c6\u30ea\u30a2\u30eb.003",
            "pbrMetallicRoughness" : {
                "baseColorFactor" : [
                    0.8000000715255737,
                    0.08978324383497238,
                    0,
                    1
                ],
                "metallicFactor" : 0,
                "roughnessFactor" : 0.5
            }
        },
        {
            "doubleSided" : true,
            "emissiveFactor" : [
                0,
                0,
                0
            ],
            "name" : "\u30de\u30c6\u30ea\u30a2\u30eb",
            "pbrMetallicRoughness" : {
                "baseColorFactor" : [
                    0.9715449810028076,
                    1,
                    0,
                    1
                ],
                "metallicFactor" : 0,
                "roughnessFactor" : 0.5
            }
        }
    ],
    "meshes" : [
        {
            "name" : "\u5186\u67f1",
            "primitives" : [
                {
                    "attributes" : {
                        "POSITION" : 0,
                        "NORMAL" : 1,
                        "TEXCOORD_0" : 2
                    },
                    "indices" : 3,
                    "material" : 0
                }
            ]
        },
        {
            "name" : "\u5186\u67f1.001",
            "primitives" : [
                {
                    "attributes" : {
                        "POSITION" : 4,
                        "NORMAL" : 5,
                        "TEXCOORD_0" : 6
                    },
                    "indices" : 3,
                    "material" : 0
                }
            ]
        },
        {
            "name" : "\u5186\u67f1.002",
            "primitives" : [
                {
                    "attributes" : {
                        "POSITION" : 7,
                        "NORMAL" : 8,
                        "TEXCOORD_0" : 9
                    },
                    "indices" : 3,
                    "material" : 0
                }
            ]
        },
        {
            "name" : "\u5186\u67f1.003",
            "primitives" : [
                {
                    "attributes" : {
                        "POSITION" : 10,
                        "NORMAL" : 11,
                        "TEXCOORD_0" : 12
                    },
                    "indices" : 13,
                    "material" : 1
                }
            ]
        },
        {
            "name" : "\u5186",
            "primitives" : [
                {
                    "attributes" : {
                        "POSITION" : 14,
                        "NORMAL" : 15,
                        "TEXCOORD_0" : 16
                    },
                    "indices" : 17,
                    "material" : 2
                }
            ]
        }
    ],
    "accessors" : [
        {
            "bufferView" : 0,
            "componentType" : 5126,
            "count" : 686,
            "max" : [
                1,
                1.1426682472229004,
                1
            ],
            "min" : [
                -1,
                -0.16456401348114014,
                -1
            ],
            "type" : "VEC3"
        },
        {
            "bufferView" : 1,
            "componentType" : 5126,
            "count" : 686,
            "type" : "VEC3"
        },
        {
            "bufferView" : 2,
            "componentType" : 5126,
            "count" : 686,
            "type" : "VEC2"
        },
        {
            "bufferView" : 3,
            "componentType" : 5123,
            "count" : 1140,
            "type" : "SCALAR"
        },
        {
            "bufferView" : 4,
            "componentType" : 5126,
            "count" : 686,
            "max" : [
                1,
                1.1426682472229004,
                1
            ],
            "min" : [
                -1,
                -0.16456401348114014,
                -1
            ],
            "type" : "VEC3"
        },
        {
            "bufferView" : 5,
            "componentType" : 5126,
            "count" : 686,
            "type" : "VEC3"
        },
        {
            "bufferView" : 6,
            "componentType" : 5126,
            "count" : 686,
            "type" : "VEC2"
        },
        {
            "bufferView" : 7,
            "componentType" : 5126,
            "count" : 686,
            "max" : [
                1,
                1.1426682472229004,
                1
            ],
            "min" : [
                -1,
                -0.16456401348114014,
                -1
            ],
            "type" : "VEC3"
        },
        {
            "bufferView" : 8,
            "componentType" : 5126,
            "count" : 686,
            "type" : "VEC3"
        },
        {
            "bufferView" : 9,
            "componentType" : 5126,
            "count" : 686,
            "type" : "VEC2"
        },
        {
            "bufferView" : 10,
            "componentType" : 5126,
            "count" : 130,
            "max" : [
                1,
                1,
                1
            ],
            "min" : [
                -1,
                -1,
                -1
            ],
            "type" : "VEC3"
        },
        {
            "bufferView" : 11,
            "componentType" : 5126,
            "count" : 130,
            "type" : "VEC3"
        },
        {
            "bufferView" : 12,
            "componentType" : 5126,
            "count" : 130,
            "type" : "VEC2"
        },
        {
            "bufferView" : 13,
            "componentType" : 5123,
            "count" : 372,
            "type" : "SCALAR"
        },
        {
            "bufferView" : 14,
            "componentType" : 5126,
            "count" : 36,
            "max" : [
                0.866025447845459,
                0.23786728084087372,
                1
            ],
            "min" : [
                -0.866025447845459,
                0,
                -1
            ],
            "type" : "VEC3"
        },
        {
            "bufferView" : 15,
            "componentType" : 5126,
            "count" : 36,
            "type" : "VEC3"
        },
        {
            "bufferView" : 16,
            "componentType" : 5126,
            "count" : 36,
            "type" : "VEC2"
        },
        {
            "bufferView" : 17,
            "componentType" : 5123,
            "count" : 36,
            "type" : "SCALAR"
        }
    ],
    "bufferViews" : [
        {
            "buffer" : 0,
            "byteLength" : 8232,
            "byteOffset" : 0
        },
        {
            "buffer" : 0,
            "byteLength" : 8232,
            "byteOffset" : 8232
        },
        {
            "buffer" : 0,
            "byteLength" : 5488,
            "byteOffset" : 16464
        },
        {
            "buffer" : 0,
            "byteLength" : 2280,
            "byteOffset" : 21952
        },
        {
            "buffer" : 0,
            "byteLength" : 8232,
            "byteOffset" : 24232
        },
        {
            "buffer" : 0,
            "byteLength" : 8232,
            "byteOffset" : 32464
        },
        {
            "buffer" : 0,
            "byteLength" : 5488,
            "byteOffset" : 40696
        },
        {
            "buffer" : 0,
            "byteLength" : 8232,
            "byteOffset" : 46184
        },
        {
            "buffer" : 0,
            "byteLength" : 8232,
            "byteOffset" : 54416
        },
        {
            "buffer" : 0,
            "byteLength" : 5488,
            "byteOffset" : 62648
        },
        {
            "buffer" : 0,
            "byteLength" : 1560,
            "byteOffset" : 68136
        },
        {
            "buffer" : 0,
            "byteLength" : 1560,
            "byteOffset" : 69696
        },
        {
            "buffer" : 0,
            "byteLength" : 1040,
            "byteOffset" : 71256
        },
        {
            "buffer" : 0,
            "byteLength" : 744,
            "byteOffset" : 72296
        },
        {
            "buffer" : 0,
            "byteLength" : 432,
            "byteOffset" : 73040
        },
        {
            "buffer" : 0,
            "byteLength" : 432,
            "byteOffset" : 73472
        },
        {
            "buffer" : 0,
            "byteLength" : 288,
            "byteOffset" : 73904
        },
        {
            "buffer" : 0,
            "byteLength" : 72,
            "byteOffset" : 74192
        }
    ],
    "buffers" : [
        {
            "byteLength" : 74264,
            "uri" : "data:application/octet-stream;base64,"
        }
    ]
}
